<svg width="300" height="44" viewBox="0 0 300 44" fill="none" xmlns="http://www.w3.org/2000/svg">
<path d="M184.094 17.1205C184.066 17.0646 184.066 16.9806 184.094 16.8967L188.707 4.16823C188.734 4.08431 188.79 4.00038 188.818 3.97241C188.873 3.94443 188.929 3.91646 189.04 3.91646H190.429C190.652 3.91646 190.791 4.00038 190.846 4.19621L195.403 16.8967L195.431 16.9806C195.431 17.1205 195.375 17.2044 195.236 17.2044H193.958C193.819 17.2044 193.708 17.1485 193.68 17.0366L192.458 13.5677C192.43 13.5118 192.402 13.4838 192.374 13.4558C192.347 13.4279 192.291 13.4279 192.236 13.4279H187.067C186.956 13.4279 186.901 13.4838 186.845 13.5677L185.595 17.0646C185.567 17.1765 185.483 17.2324 185.317 17.2324H184.261C184.177 17.2044 184.122 17.1765 184.094 17.1205ZM191.791 12.0571C191.93 12.0571 191.958 11.9732 191.93 11.8333L189.79 5.93064C189.763 5.81874 189.707 5.76279 189.679 5.76279C189.651 5.76279 189.596 5.81874 189.568 5.93064L187.401 11.8613L187.373 11.9732C187.373 12.0291 187.428 12.0571 187.512 12.0571H191.791V12.0571Z" fill="white"/>
<path d="M202.224 15.7111C202.705 15.4395 203.186 15.0863 203.695 14.5973V8.10459C203.695 7.9416 203.779 7.8601 203.977 7.8601H204.967C205.137 7.8601 205.222 7.9416 205.222 8.10459L205.193 16.8521C205.193 17.0151 205.137 17.0694 204.995 17.0694H203.949C203.808 17.0694 203.751 17.0151 203.751 16.8793V15.847C203.751 15.7111 203.695 15.684 203.581 15.7926C202.931 16.3359 202.337 16.6891 201.857 16.9064C201.376 17.1238 200.839 17.2324 200.301 17.2324C199.453 17.2324 198.774 16.9879 198.209 16.4989C197.643 16.0099 197.389 15.358 197.389 14.5701V8.10459C197.389 7.9416 197.474 7.83293 197.671 7.83293H198.689C198.859 7.83293 198.916 7.91443 198.916 8.07743V14.1898C198.916 14.7603 199.085 15.2221 199.425 15.5753C199.764 15.9285 200.216 16.0914 200.782 16.0914C201.263 16.0914 201.743 15.9556 202.224 15.7111Z" fill="white"/>
<path d="M212.344 8.85986C211.9 8.63733 211.4 8.52607 210.844 8.52607C210.206 8.52607 209.65 8.66515 209.233 8.9433C208.817 9.22146 208.622 9.58307 208.622 10.0281C208.622 10.3063 208.733 10.5566 208.928 10.7791C209.122 11.0017 209.511 11.1964 210.067 11.3633L212.317 12.0309C213.094 12.2534 213.678 12.5594 214.066 12.9766C214.455 13.3938 214.622 13.8945 214.622 14.4786C214.622 15.035 214.455 15.5078 214.122 15.9251C213.789 16.3423 213.344 16.6761 212.761 16.8986C212.178 17.1211 211.511 17.2324 210.789 17.2324C209.872 17.2324 209.067 17.0655 208.345 16.6761C207.622 16.3145 207.122 15.8416 206.845 15.2575C206.817 15.2018 206.789 15.1462 206.789 15.1184C206.789 15.0628 206.817 15.0071 206.872 14.9793L207.567 14.5899C207.678 14.5065 207.761 14.5343 207.845 14.6177C208.483 15.6469 209.483 16.1476 210.817 16.1476C211.511 16.1476 212.094 15.9807 212.539 15.7025C212.983 15.4244 213.233 15.0628 213.233 14.6177C213.233 14.2839 213.094 14.0058 212.817 13.7832C212.539 13.5607 212.094 13.366 211.483 13.1713L209.65 12.6428C208.789 12.4203 208.178 12.1143 207.789 11.6971C207.428 11.3076 207.233 10.807 207.233 10.2228C207.233 9.66651 207.372 9.19365 207.678 8.77641C207.983 8.35917 208.4 8.02538 208.956 7.77504C209.511 7.55252 210.15 7.44125 210.844 7.44125C211.622 7.44125 212.317 7.58033 212.955 7.88631C213.566 8.19228 214.066 8.5817 214.4 9.1102C214.483 9.22146 214.483 9.30491 214.372 9.36054L213.622 9.77778C213.566 9.80559 213.539 9.80559 213.511 9.80559C213.455 9.80559 213.4 9.77778 213.344 9.72215C213.122 9.38836 212.789 9.08238 212.344 8.85986Z" fill="white"/>
<path d="M219.248 8.95092C219.165 8.95092 219.109 9.00613 219.109 9.11655V14.7204C219.109 15.2449 219.193 15.6037 219.388 15.8246C219.555 16.0178 219.861 16.1282 220.251 16.1282H221.476C221.615 16.1282 221.671 16.1834 221.671 16.3214L221.643 16.9288C221.643 17.0392 221.559 17.122 221.42 17.1496C221.114 17.2048 220.557 17.2324 219.749 17.2324C218.998 17.2324 218.441 17.0668 218.107 16.7079C217.773 16.3491 217.578 15.797 217.578 15.0516V9.14416C217.578 9.00613 217.522 8.95092 217.411 8.95092H215.991C215.852 8.95092 215.796 8.89571 215.796 8.78529V8.03996C215.796 7.92954 215.852 7.87433 215.963 7.87433H217.466C217.55 7.87433 217.578 7.81912 217.578 7.7363L217.773 4.92059C217.773 4.75496 217.828 4.69975 217.968 4.69975H218.859C218.998 4.69975 219.081 4.78257 219.081 4.9482V7.7363C219.081 7.81912 219.137 7.87433 219.22 7.87433H221.476C221.615 7.87433 221.671 7.92954 221.671 8.03996V8.8129C221.671 8.92331 221.615 8.97853 221.476 8.97853H219.248V8.95092Z" fill="white"/>
<path d="M223.629 16.6449V7.8497C223.629 7.68632 223.686 7.63186 223.828 7.63186H224.88C225.023 7.63186 225.08 7.68632 225.08 7.82247V8.96612C225.08 9.04781 225.108 9.07504 225.136 9.07504C225.165 9.07504 225.222 9.07504 225.279 8.99335C226.189 7.95862 227.127 7.44125 228.095 7.44125C228.521 7.44125 228.72 7.52294 228.72 7.65909V8.69382C228.72 8.80274 228.663 8.8572 228.55 8.82997C228.322 8.80274 228.066 8.77551 227.725 8.77551C227.383 8.77551 226.985 8.88443 226.587 9.07504C226.16 9.26565 225.819 9.53795 225.563 9.83748C225.279 10.1642 225.136 10.4638 225.136 10.7905V16.5632C225.136 16.7266 225.051 16.8355 224.852 16.8355H223.856C223.714 16.8628 223.629 16.7811 223.629 16.6449Z" fill="white"/>
<path d="M232.85 17.2324C231.93 17.2324 231.206 17.0099 230.676 16.537C230.146 16.0641 229.896 15.4522 229.896 14.6455C229.896 13.6998 230.286 12.9488 231.094 12.3925C231.903 11.8361 233.045 11.5302 234.579 11.4189L235.972 11.3076C236.167 11.2798 236.279 11.1964 236.279 11.0295V10.6122C236.279 9.97249 236.084 9.4718 235.694 9.08238C235.303 8.72078 234.746 8.52607 234.077 8.52607C233.018 8.52607 232.181 8.99893 231.512 9.94467C231.484 10.0003 231.429 10.0559 231.401 10.0559C231.373 10.0837 231.317 10.0837 231.261 10.0559L230.286 9.72214C230.23 9.69433 230.202 9.66651 230.202 9.61088C230.202 9.58307 230.23 9.52743 230.258 9.44399C230.62 8.80422 231.122 8.33136 231.791 7.96975C232.46 7.60815 233.241 7.44125 234.133 7.44125C235.303 7.44125 236.195 7.71941 236.809 8.24791C237.422 8.77641 237.728 9.52743 237.728 10.4732V16.7873C237.728 16.8986 237.701 16.9542 237.673 17.0099C237.645 17.0655 237.561 17.0655 237.478 17.0655H236.586C236.446 17.0655 236.363 16.9821 236.335 16.7873L236.307 15.9807C236.307 15.8972 236.251 15.8694 236.223 15.8694C236.167 15.8694 236.112 15.8972 236.056 15.9529C235.136 16.8152 234.077 17.2324 232.85 17.2324ZM236 12.2534L234.829 12.3646C233.714 12.4481 232.878 12.6428 232.265 13.0044C231.652 13.366 231.373 13.8667 231.373 14.4786C231.373 14.9793 231.568 15.3966 231.93 15.7025C232.293 16.0085 232.767 16.1476 233.38 16.1476C233.742 16.1476 234.105 16.092 234.467 15.9529C234.829 15.8138 235.136 15.6469 235.415 15.4244C235.694 15.2018 235.889 14.9793 236.056 14.729C236.195 14.4786 236.279 14.2561 236.279 14.0336V12.5594C236.279 12.3646 236.195 12.2534 236 12.2534Z" fill="white"/>
<path d="M241.616 16.924C241.616 17.0362 241.588 17.1203 241.531 17.1763C241.474 17.2044 241.388 17.2324 241.274 17.2324H240.363C240.249 17.2324 240.192 17.2044 240.135 17.1763C240.078 17.1483 240.078 17.0642 240.078 16.9801L240.107 4.16876C240.107 4.00056 240.192 3.91646 240.334 3.91646H241.417C241.559 3.91646 241.645 4.00056 241.645 4.14073V16.924H241.616Z" fill="white"/>
<path d="M245.952 5.68257C245.952 5.79471 245.926 5.87881 245.873 5.93488C245.82 5.99094 245.74 6.01898 245.634 6.01898H244.651C244.492 6.01898 244.386 5.90684 244.386 5.71061V4.19679C244.386 4.00056 244.465 3.91646 244.625 3.91646H245.687C245.766 3.91646 245.82 3.94449 245.846 4.00056C245.899 4.05663 245.926 4.11269 245.926 4.19679V5.68257H245.952ZM245.899 16.924C245.899 17.0362 245.873 17.1203 245.82 17.1763C245.766 17.2044 245.687 17.2324 245.581 17.2324H244.704C244.598 17.2324 244.545 17.2044 244.492 17.1763C244.439 17.1483 244.439 17.0642 244.439 16.9801V7.98133C244.439 7.81313 244.519 7.72903 244.651 7.72903H245.687C245.82 7.72903 245.873 7.81313 245.873 7.95329V16.924H245.899Z" fill="white"/>
<path d="M250.867 17.2324C249.947 17.2324 249.222 17.0099 248.693 16.537C248.163 16.0641 247.912 15.4522 247.912 14.6455C247.912 13.6998 248.302 12.9488 249.111 12.3925C249.919 11.8361 251.062 11.5302 252.595 11.4189L253.989 11.3076C254.184 11.2798 254.296 11.1964 254.296 11.0295V10.6122C254.296 9.97249 254.1 9.4718 253.71 9.08238C253.32 8.72078 252.762 8.52607 252.093 8.52607C251.034 8.52607 250.198 8.99893 249.529 9.94467C249.501 10.0003 249.445 10.0559 249.417 10.0559C249.389 10.0837 249.334 10.0837 249.278 10.0559L248.302 9.72214C248.247 9.69433 248.219 9.66651 248.219 9.61088C248.219 9.58307 248.247 9.52743 248.274 9.44399C248.637 8.80422 249.139 8.33136 249.808 7.96975C250.477 7.60815 251.257 7.44125 252.149 7.44125C253.32 7.44125 254.212 7.71941 254.825 8.24791C255.438 8.77641 255.745 9.52743 255.745 10.4732V16.7873C255.745 16.8986 255.717 16.9542 255.689 17.0099C255.661 17.0655 255.578 17.0655 255.494 17.0655H254.602C254.463 17.0655 254.379 16.9821 254.351 16.7873L254.323 15.9807C254.323 15.8972 254.268 15.8694 254.24 15.8694C254.184 15.8694 254.128 15.8972 254.073 15.9529C253.125 16.8152 252.066 17.2324 250.867 17.2324ZM254.017 12.2534L252.846 12.3646C251.731 12.4481 250.895 12.6428 250.281 13.0044C249.668 13.366 249.389 13.8667 249.389 14.4786C249.389 14.9793 249.585 15.3966 249.947 15.7025C250.309 16.0085 250.783 16.1476 251.396 16.1476C251.759 16.1476 252.121 16.092 252.484 15.9529C252.846 15.8138 253.153 15.6469 253.431 15.4244C253.71 15.2018 253.905 14.9793 254.073 14.729C254.212 14.4786 254.296 14.2561 254.296 14.0336V12.5594C254.268 12.3646 254.184 12.2534 254.017 12.2534Z" fill="white"/>
<path d="M272.395 3.91646C272.477 3.91646 272.504 3.94443 272.532 3.97241C272.559 4.00038 272.586 4.05633 272.586 4.14026V17.0086C272.586 17.1485 272.504 17.2324 272.368 17.2324H271.522C271.441 17.2324 271.359 17.2324 271.304 17.2044C271.25 17.1765 271.195 17.1485 271.168 17.0925L264.431 7.04962C264.377 6.9657 264.35 6.93772 264.295 6.93772C264.24 6.93772 264.24 6.99367 264.24 7.04962V16.9806C264.24 17.1485 264.159 17.2044 263.995 17.2044H263.013C262.849 17.2044 262.795 17.1205 262.795 16.9806V4.16823C262.795 4.08431 262.822 4.00038 262.849 3.97241C262.877 3.94443 262.931 3.91646 263.04 3.91646H264.022C264.104 3.91646 264.186 3.91646 264.24 3.94443C264.295 3.97241 264.349 4.02836 264.404 4.08431L270.95 13.9034C271.004 13.9873 271.059 14.0153 271.113 14.0153C271.195 14.0153 271.222 13.9594 271.222 13.8475V4.14026C271.222 4.00038 271.304 3.91646 271.441 3.91646H272.395Z" fill="white"/>
<path d="M276.926 14.5065C277.199 15.0071 277.58 15.3687 278.044 15.6747C278.507 15.9529 279.026 16.092 279.571 16.092C280.743 16.092 281.643 15.5913 282.297 14.6177C282.352 14.5621 282.379 14.5343 282.407 14.5343C282.434 14.5343 282.488 14.5343 282.516 14.5621L283.252 14.9237C283.334 14.9793 283.361 15.0628 283.279 15.174C282.816 15.8972 282.297 16.3979 281.643 16.7317C281.016 17.0655 280.253 17.2324 279.38 17.2324C278.535 17.2324 277.771 17.0377 277.09 16.6204C276.408 16.231 275.89 15.6469 275.508 14.9237C275.126 14.2005 274.936 13.366 274.936 12.4203C274.936 11.4189 275.126 10.5288 275.508 9.77778C275.89 9.02675 276.408 8.44262 277.09 8.0532C277.771 7.63596 278.507 7.44125 279.353 7.44125C280.198 7.44125 280.934 7.63596 281.561 7.99757C282.188 8.38699 282.679 8.9433 283.034 9.66651C283.388 10.3897 283.552 11.252 283.552 12.2534V12.3368C283.552 12.4481 283.524 12.5315 283.497 12.5872C283.47 12.6428 283.388 12.6706 283.279 12.6706H276.653C276.544 12.6706 276.49 12.7541 276.49 12.9488C276.517 13.4773 276.653 14.0058 276.926 14.5065ZM281.834 11.6692C281.97 11.6692 282.052 11.6414 282.079 11.6136C282.107 11.5858 282.134 11.5024 282.134 11.4189C282.134 10.8904 282.025 10.4175 281.807 9.97249C281.589 9.52743 281.289 9.16583 280.852 8.91549C280.443 8.63733 279.953 8.52607 279.407 8.52607C278.807 8.52607 278.289 8.66515 277.853 8.97112C277.417 9.27709 277.062 9.66651 276.844 10.1394C276.599 10.6122 276.49 11.1407 276.517 11.6692H281.834Z" fill="white"/>
<path d="M293.343 17.1215C293.343 17.2047 293.288 17.2324 293.149 17.2324H291.907C291.741 17.2324 291.603 17.177 291.548 17.0661L289.062 13.6279C289.007 13.5447 288.952 13.4893 288.924 13.4893C288.897 13.4893 288.841 13.5447 288.759 13.6279L286.163 17.0661C286.08 17.177 285.969 17.2324 285.804 17.2324H284.975C284.809 17.2324 284.727 17.177 284.727 17.0661C284.727 17.0106 284.754 16.9274 284.837 16.7888L288.04 12.6852C288.096 12.602 288.123 12.5465 288.123 12.4911C288.123 12.4356 288.096 12.3802 288.04 12.297L284.975 8.1102C284.947 8.08248 284.92 8.02702 284.92 7.99929C284.92 7.94384 284.947 7.91611 284.975 7.88839C285.003 7.86066 285.058 7.83293 285.113 7.83293H286.301C286.384 7.83293 286.439 7.83293 286.494 7.86066C286.549 7.88839 286.577 7.91611 286.632 7.97157L289.007 11.2156C289.062 11.2988 289.118 11.3266 289.145 11.3266C289.2 11.3266 289.228 11.2988 289.256 11.2156L291.575 7.97157C291.631 7.91611 291.658 7.86066 291.713 7.86066C291.769 7.83293 291.824 7.83293 291.934 7.83293H292.846C292.956 7.83293 293.011 7.86066 293.011 7.94384C293.011 7.97157 292.984 8.02702 292.929 8.08248L289.946 12.1029C289.891 12.1861 289.863 12.2415 289.863 12.2693C289.863 12.3247 289.891 12.4079 289.946 12.4911L293.177 16.872C293.288 16.9829 293.343 17.0661 293.343 17.1215Z" fill="white"/>
<path d="M297.578 8.95092C297.495 8.95092 297.439 9.00613 297.439 9.11655V14.7204C297.439 15.2449 297.523 15.6037 297.718 15.8246C297.885 16.0178 298.191 16.1282 298.581 16.1282H299.806C299.945 16.1282 300.001 16.1834 300.001 16.3214L299.973 16.9288C299.973 17.0392 299.889 17.122 299.75 17.1496C299.444 17.2048 298.887 17.2324 298.08 17.2324C297.328 17.2324 296.771 17.0668 296.437 16.7079C296.103 16.3491 295.908 15.797 295.908 15.0516V9.14416C295.908 9.00613 295.852 8.95092 295.741 8.95092H294.321C294.182 8.95092 294.126 8.89571 294.126 8.78529V8.03996C294.126 7.92954 294.182 7.87433 294.293 7.87433H295.797C295.88 7.87433 295.908 7.81912 295.908 7.7363L296.103 4.92059C296.103 4.75496 296.158 4.69975 296.298 4.69975H297.189C297.328 4.69975 297.411 4.78257 297.411 4.9482V7.7363C297.411 7.81912 297.467 7.87433 297.551 7.87433H299.806C299.945 7.87433 300.001 7.92954 300.001 8.03996V8.8129C300.001 8.92331 299.945 8.97853 299.806 8.97853H297.578V8.95092Z" fill="white"/>
<path d="M184.101 23.6958C184.101 23.5551 184.186 23.4987 184.327 23.4987H194.03C194.171 23.4987 194.256 23.5551 194.256 23.6958V24.6248C194.256 24.7093 194.228 24.7374 194.2 24.7656C194.171 24.7937 194.115 24.7937 194.03 24.7937H190.363C190.279 24.7937 190.251 24.7937 190.222 24.8219C190.194 24.8501 190.166 24.9064 190.166 24.9627V36.5895C190.166 36.7584 190.081 36.8147 189.94 36.8147H188.643C188.502 36.8147 188.417 36.7302 188.417 36.5895V25.019C188.417 24.9345 188.417 24.8782 188.389 24.8501C188.361 24.8219 188.304 24.8219 188.248 24.8219H184.299C184.214 24.8219 184.186 24.8219 184.13 24.7937C184.101 24.7656 184.073 24.7093 184.073 24.653V23.6958H184.101Z" fill="white"/>
<path d="M195.462 34.0888C195.735 34.5894 196.117 34.9511 196.58 35.257C197.044 35.5352 197.562 35.6743 198.107 35.6743C199.279 35.6743 200.179 35.1736 200.834 34.2C200.888 34.1444 200.915 34.1166 200.943 34.1166C200.97 34.1166 201.024 34.1166 201.052 34.1444L201.788 34.506C201.87 34.5616 201.897 34.6451 201.815 34.7563C201.352 35.4795 200.834 35.9802 200.179 36.314C199.552 36.6478 198.789 36.8147 197.916 36.8147C197.071 36.8147 196.307 36.62 195.626 36.2028C194.944 35.8133 194.426 35.2292 194.044 34.506C193.663 33.7828 193.472 32.9483 193.472 32.0026C193.472 31.0012 193.663 30.1111 194.044 29.3601C194.426 28.6091 194.944 28.0249 195.626 27.6355C196.307 27.2183 197.044 27.0236 197.889 27.0236C198.734 27.0236 199.47 27.2183 200.097 27.5799C200.725 27.9693 201.215 28.5256 201.57 29.2488C201.924 29.972 202.088 30.8343 202.088 31.8357V31.9191C202.088 32.0304 202.061 32.1138 202.033 32.1695C202.006 32.2251 201.924 32.2529 201.815 32.2529H195.135C195.026 32.2529 194.971 32.3364 194.971 32.5311C195.053 33.0596 195.189 33.5881 195.462 34.0888ZM200.397 31.2516C200.534 31.2516 200.615 31.2237 200.643 31.1959C200.67 31.1681 200.697 31.0847 200.697 31.0012C200.697 30.4727 200.588 29.9998 200.37 29.5548C200.152 29.1097 199.852 28.7481 199.416 28.4978C199.007 28.2196 198.516 28.1084 197.971 28.1084C197.371 28.1084 196.853 28.2475 196.416 28.5534C195.98 28.8594 195.626 29.2488 195.408 29.7217C195.162 30.1946 195.053 30.7231 195.08 31.2516H200.397V31.2516Z" fill="white"/>
<path d="M210.602 27.6633C211.21 28.0806 211.708 28.6091 212.067 29.2766L212.095 29.4157C212.095 29.4992 212.067 29.527 211.984 29.527L211.016 29.7495L210.961 29.7773C210.906 29.7773 210.851 29.7217 210.795 29.6382C210.408 29.1376 210.048 28.7481 209.717 28.5256C209.357 28.2753 208.97 28.164 208.527 28.164C207.615 28.164 206.868 28.4978 206.342 29.1932C205.789 29.8886 205.54 30.8065 205.54 31.9748C205.54 33.143 205.817 34.0888 206.37 34.7563C206.923 35.4239 207.67 35.7577 208.583 35.7577C209.136 35.7577 209.634 35.6186 210.048 35.3405C210.463 35.0623 210.851 34.6451 211.182 34.0888C211.21 34.0331 211.265 34.0053 211.293 33.9775C211.321 33.9775 211.376 33.9775 211.404 34.0053L212.178 34.2835C212.261 34.3113 212.289 34.3947 212.261 34.506C211.902 35.2014 211.404 35.7577 210.768 36.1749C210.131 36.62 209.357 36.8147 208.472 36.8147C207.615 36.8147 206.84 36.62 206.176 36.2028C205.513 35.7855 204.987 35.2292 204.6 34.4782C204.213 33.755 204.047 32.8927 204.047 31.9469C204.047 31.0012 204.24 30.1389 204.6 29.3879C204.987 28.6369 205.513 28.0527 206.176 27.6355C206.868 27.2183 207.615 27.0236 208.472 27.0236C209.274 27.0514 209.993 27.2739 210.602 27.6633Z" fill="white"/>
<path d="M214.23 36.5624V23.723C214.23 23.5548 214.287 23.4987 214.427 23.4987H215.494C215.634 23.4987 215.69 23.5828 215.69 23.723V28.5168C215.69 28.6569 215.747 28.6569 215.859 28.5728C216.533 28.0402 217.122 27.6758 217.599 27.4515C218.077 27.2272 218.61 27.1151 219.172 27.1151C220.098 27.1151 220.8 27.3674 221.305 27.844C221.811 28.3486 222.063 28.9933 222.063 29.8343V36.5063C222.063 36.7026 221.979 36.7867 221.783 36.7867H220.772C220.603 36.7867 220.547 36.7026 220.547 36.5624V30.1427C220.547 29.554 220.407 29.0774 220.098 28.7691C219.789 28.4607 219.312 28.2925 218.694 28.2925C218.189 28.2925 217.74 28.4046 217.319 28.6289C216.898 28.8532 216.392 29.2176 215.775 29.7502V36.5344C215.775 36.7026 215.69 36.8147 215.494 36.8147H214.511C214.315 36.7867 214.23 36.7026 214.23 36.5624Z" fill="white"/>
<path d="M224.412 36.5877V27.4209C224.412 27.2506 224.468 27.1938 224.609 27.1938H225.675C225.816 27.1938 225.872 27.2506 225.872 27.3925V28.4426C225.872 28.5845 225.928 28.5845 226.04 28.4993C226.714 27.9601 227.276 27.5912 227.753 27.3641C228.23 27.1371 228.764 27.0236 229.353 27.0236C230.252 27.0236 230.982 27.279 231.487 27.7614C231.992 28.2723 232.245 28.925 232.245 29.7481V36.5309C232.245 36.7296 232.161 36.8147 231.964 36.8147H230.954C230.785 36.8147 230.729 36.7296 230.729 36.5877V30.0886C230.729 29.4926 230.589 29.0102 230.28 28.698C229.971 28.3858 229.494 28.2155 228.876 28.2155C228.371 28.2155 227.921 28.329 227.472 28.5561C227.051 28.7831 226.518 29.1521 225.928 29.6913V36.5593C225.928 36.6444 225.9 36.7296 225.872 36.7579C225.816 36.7863 225.76 36.8147 225.675 36.8147H224.693C224.496 36.8147 224.412 36.7296 224.412 36.5877Z" fill="white"/>
<path d="M236.344 36.2028C235.649 35.7855 235.121 35.2292 234.759 34.4782C234.398 33.755 234.203 32.8927 234.203 31.9748C234.203 31.0012 234.398 30.1667 234.787 29.4157C235.176 28.6647 235.704 28.0806 236.399 27.6633C237.095 27.2461 237.873 27.0236 238.735 27.0236C239.625 27.0236 240.403 27.2461 241.07 27.6633C241.765 28.0806 242.294 28.6647 242.655 29.4157C243.016 30.1667 243.211 31.0012 243.211 31.9748C243.211 32.9205 243.016 33.755 242.655 34.4782C242.266 35.2014 241.737 35.7855 241.07 36.2028C240.375 36.62 239.597 36.8147 238.735 36.8147C237.817 36.8147 237.039 36.62 236.344 36.2028ZM240.903 34.7007C241.432 34.0331 241.682 33.1152 241.682 31.9191C241.682 30.7509 241.404 29.8329 240.903 29.1376C240.375 28.4422 239.652 28.1084 238.735 28.1084C237.817 28.1084 237.067 28.4422 236.538 29.1376C236.01 29.8329 235.732 30.7509 235.732 31.9191C235.732 33.0874 236.01 34.0053 236.538 34.6729C237.067 35.3405 237.817 35.6743 238.735 35.6743C239.68 35.7021 240.403 35.3683 240.903 34.7007Z" fill="white"/>
<path d="M247.129 36.5063C247.129 36.6185 247.101 36.7026 247.044 36.7586C246.987 36.7867 246.901 36.8147 246.787 36.8147H245.847C245.733 36.8147 245.676 36.7867 245.619 36.7586C245.562 36.7306 245.563 36.6465 245.563 36.5624L245.591 23.7511C245.591 23.5828 245.676 23.4987 245.819 23.4987H246.901C247.044 23.4987 247.129 23.5829 247.129 23.723V36.5063Z" fill="white"/>
<path d="M251.228 36.2028C250.533 35.7855 250.004 35.2292 249.643 34.4782C249.282 33.755 249.087 32.8927 249.087 31.9748C249.087 31.0012 249.282 30.1667 249.671 29.4157C250.06 28.6647 250.588 28.0806 251.283 27.6633C251.978 27.2461 252.757 27.0236 253.619 27.0236C254.508 27.0236 255.287 27.2461 255.954 27.6633C256.649 28.0806 257.177 28.6647 257.539 29.4157C257.9 30.1667 258.095 31.0012 258.095 31.9748C258.095 32.9205 257.9 33.755 257.539 34.4782C257.149 35.2014 256.621 35.7855 255.954 36.2028C255.259 36.62 254.48 36.8147 253.619 36.8147C252.673 36.8147 251.895 36.62 251.228 36.2028ZM255.787 34.7007C256.315 34.0331 256.566 33.1152 256.566 31.9191C256.566 30.7509 256.288 29.8329 255.787 29.1376C255.259 28.4422 254.536 28.1084 253.619 28.1084C252.701 28.1084 251.951 28.4422 251.422 29.1376C250.894 29.8329 250.616 30.7509 250.616 31.9191C250.616 33.0874 250.894 34.0053 251.422 34.6729C251.951 35.3405 252.701 35.6743 253.619 35.6743C254.536 35.7021 255.259 35.3683 255.787 34.7007Z" fill="white"/>
<path d="M269.06 27.3064V27.9285C269.06 28.0417 269.032 28.1265 268.976 28.1831C268.921 28.2396 268.838 28.2679 268.699 28.2396C268.311 28.2396 268.006 28.2962 267.784 28.4093C267.506 28.5224 267.368 28.6638 267.423 28.8335C267.423 28.8901 267.479 28.9749 267.534 29.1163C267.59 29.2577 267.645 29.3991 267.673 29.5688C267.701 29.7385 267.728 29.9082 267.728 30.0779C267.728 30.9263 267.395 31.6333 266.73 32.1707C266.064 32.708 265.121 32.9908 263.873 32.9908C263.041 32.9908 262.431 33.0756 262.07 33.217C261.709 33.3585 261.515 33.5564 261.515 33.7827C261.515 33.9523 261.626 34.0938 261.876 34.1786C262.125 34.2634 262.542 34.32 263.124 34.3766L265.426 34.4897C266.452 34.5462 267.201 34.8008 267.701 35.225C268.2 35.6492 268.449 36.2431 268.449 37.0067C268.449 37.9117 268.061 38.647 267.257 39.156C266.48 39.6651 265.343 39.9479 263.901 39.9479C262.403 39.9479 261.266 39.7216 260.461 39.2974C259.685 38.8449 259.269 38.2227 259.269 37.4026C259.269 36.5825 259.823 35.9037 260.933 35.3664C261.071 35.3098 261.071 35.2533 260.933 35.1684C260.378 34.9139 260.128 34.5745 260.128 34.0938C260.128 33.8392 260.239 33.5847 260.489 33.3302C260.739 33.0756 261.071 32.8777 261.515 32.7363C261.571 32.7363 261.598 32.708 261.598 32.6514C261.598 32.5949 261.571 32.5383 261.515 32.5383C260.988 32.2555 260.6 31.9161 260.35 31.5202C260.101 31.1243 259.99 30.6435 259.99 30.1062C259.99 29.1729 260.35 28.4093 261.044 27.872C261.737 27.3346 262.736 27.0518 264.012 27.0518C265.149 27.0518 266.036 27.3346 266.674 27.872C266.758 27.9285 266.813 27.9568 266.841 27.9568C266.896 27.9568 266.952 27.9285 267.035 27.872C267.257 27.6457 267.534 27.4478 267.812 27.2781C268.117 27.1084 268.394 27.0236 268.699 27.0236C268.949 27.0236 269.06 27.1367 269.06 27.3064ZM262.32 35.5926C262.098 35.5926 261.876 35.6492 261.598 35.7906C261.321 35.932 261.099 36.13 260.905 36.3845C260.711 36.639 260.628 36.9218 260.628 37.2046C260.628 37.7703 260.905 38.2227 261.488 38.5338C262.07 38.8449 262.93 38.9863 264.067 38.9863C266.064 38.9863 267.063 38.3924 267.063 37.1764C267.063 36.7521 266.924 36.4128 266.647 36.1865C266.369 35.932 265.925 35.8189 265.287 35.7623L262.32 35.5926ZM265.731 31.5202C266.147 31.1808 266.341 30.7001 266.341 30.0496C266.341 29.3991 266.147 28.8901 265.731 28.5224C265.315 28.1548 264.705 27.9851 263.901 27.9851C263.124 27.9851 262.514 28.1831 262.07 28.5507C261.626 28.9184 261.404 29.4274 261.404 30.0496C261.404 30.6718 261.626 31.1526 262.042 31.5202C262.486 31.8596 263.096 32.0293 263.873 32.0293C264.705 32.0293 265.315 31.8596 265.731 31.5202Z" fill="white"/>
<path d="M270.803 39.8915C270.64 39.8634 270.586 39.8071 270.586 39.6944V38.9903C270.586 38.9058 270.613 38.8495 270.694 38.8213C270.748 38.7932 270.884 38.765 271.073 38.765H272.155C272.426 38.765 272.696 38.6524 272.913 38.4552C273.156 38.2581 273.319 37.9764 273.454 37.6666C273.589 37.3568 273.643 37.0471 273.643 36.7654C273.643 36.5964 273.616 36.4275 273.562 36.343L270.261 27.725C270.261 27.6968 270.234 27.6687 270.234 27.6123C270.234 27.4715 270.316 27.4152 270.451 27.4152H271.533C271.668 27.4152 271.749 27.4715 271.804 27.6123L274.374 34.5968C274.401 34.7095 274.455 34.7658 274.509 34.7658C274.59 34.7658 274.644 34.6813 274.671 34.5405L277.214 27.6123C277.269 27.4715 277.35 27.4152 277.458 27.4152H278.27C278.351 27.4152 278.378 27.4434 278.432 27.4997C278.459 27.556 278.459 27.6123 278.459 27.6687L274.644 37.8075C274.32 38.6242 273.941 39.1875 273.481 39.4973C273.021 39.8071 272.399 39.9479 271.587 39.9479C271.235 39.9479 270.938 39.9197 270.803 39.8915Z" fill="white"/>
<path d="M174.673 0H173.106V43.4727H174.673V0Z" fill="white"/>
<path d="M135.346 11.2518H119.844V0.0255722L163.708 0V11.2262H148.051L148.077 43.4727H135.372L135.346 11.2518Z" fill="white"/>
<path d="M92.0366 0C80.1627 0 70.4961 9.75447 70.4961 21.7363C70.4961 33.7182 80.1627 43.4727 92.0366 43.4727C103.911 43.4727 113.577 33.7182 113.577 21.7363C113.577 9.75447 103.911 0 92.0366 0ZM100.663 30.4155H96.3498V21.7107L83.4356 30.4155V13.0316L96.3498 21.7363V13.0316H100.663V30.4155Z" fill="white"/>
<path d="M50.228 41.0986L20.3662 11.5035L31.9733 0L61.8351 29.5951C65.029 32.7605 65.029 37.9332 61.8351 41.0986C58.6152 44.264 53.4219 44.264 50.228 41.0986Z" fill="white"/>
<path d="M2.41384 29.5951L32.2623 0L43.8643 11.5035L14.0158 41.0986C10.8233 44.264 5.60633 44.264 2.41384 41.0986C-0.804612 37.9075 -0.804612 32.7605 2.41384 29.5951Z" fill="white"/>
</svg>
